<svg xmlns="http://www.w3.org/2000/svg" xmlns:xlink="http://www.w3.org/1999/xlink" viewBox="0 0 500 500"><defs><clipPath id="freepik--clip-path--inject-26"><path d="M136.87,334.5s-2.37,2.22,4.5,9.33,19.45,25.38,34.62,20.63,14.47-18.25,29.64-22.52,22.29,2.37,20.16,8.77-13,13.52-7.83,19.92,13,3.56,25.85-4,28-18.73,32.49-14.23-.26,12.56-1.2,16.95,9.26,1.31,12.1-2,9-15.65,13.76-15.65,6.75,10.31,12.5,12c0,0,5.52-2.55,6.23-4.44a8.49,8.49,0,0,1,1.66-2.85s4.27,5.46,7.35,6.88,3.32,0,3.32,0,5.22-10.91,8.3-19.68-8.06-16.6-15.18-18.73-24.9-10-34.85-24.43-20.16-34.62-28-34.62-16.37,8.3-38.89,24.9-58.81,29.88-66.87,33S140.9,328.72,136.87,334.5Z" style="fill:#FF725E;stroke:#263238;stroke-linecap:round;stroke-linejoin:round"></path></clipPath><clipPath id="freepik--clip-path-2--inject-26"><path d="M187.14,318c-13.28,7.35-25.61,15.65-25.61,15.65S171,337,173.62,341c2.07,3.2.86,8.17.27,10.1a22.61,22.61,0,0,0,3-4.08c5-8.55,8.55-16.68,27.94-28.56S237.36,296.56,248.2,287s11.68-13.56,11.68-13.56c-.16.2-.35.39-.54.61C242.22,293.92,200.12,310.8,187.14,318Z" style="fill:#FF725E;stroke:#263238;stroke-linecap:round;stroke-linejoin:round"></path></clipPath></defs><g id="freepik--Plants--inject-26"><path d="M391.9,330.71c.64,2.23,4,6.17,4,6.18s1.92-3,2-3.24c1.11-2.41,1.86-7.71-.32-9.72a3.51,3.51,0,0,0-5.19.63C391.19,326.23,391.35,328.81,391.9,330.71Z" style="fill:#FF725E"></path><path d="M378.34,382.89c-2.41-1.73-7.45.07-9.58,1.65-.13.1-1.37,1.26-2.15,2l1.17-1.53c.78-1,1.54-2.1,2.35-3.24l1.14-1.7c.39-.56.73-1.21,1.11-1.81.83-1.43,1.61-2.91,2.36-4.42.91.68,4.18,3.07,6.12,3.52s4.51.47,6.11-.87a3.51,3.51,0,0,0,.36-5.21c-2.13-2.07-7.38-1.06-9.72.18-.15.08-1.73,1.16-2.58,1.76.44-.91.89-1.82,1.31-2.75,1.2-2.71,2.34-5.49,3.49-8.25.35-.85.71-1.69,1.07-2.53.32.24,4.15,3.17,6.32,3.67,1.93.44,4.51.47,6.11-.87a3.5,3.5,0,0,0,.36-5.21c-2.12-2.07-7.38-1.06-9.72.18-.17.09-2.45,1.65-3,2.07.78-1.85,1.59-3.69,2.45-5.48a60.41,60.41,0,0,1,3.93-7c.14.11,4.13,3.19,6.35,3.7,1.93.44,4.51.47,6.11-.87a3.51,3.51,0,0,0,.36-5.21c-2.12-2.08-7.38-1.06-9.72.18-.15.08-1.88,1.26-2.7,1.85l-.12-.12a45.67,45.67,0,0,1,5.15-6.21c1-1.07,2.08-2,3.12-2.94.68.65,3.83,3.58,5.78,4.26s4.43,1,6.17-.19a3.52,3.52,0,0,0,.93-5.15c-1.88-2.29-7.21-1.85-9.68-.88-.13.05-1.43.74-2.38,1.26.48-.41,1-.83,1.42-1.21,1.74-1.43,3.41-2.62,4.9-3.67.86-.59,1.64-1.11,2.38-1.59,1,.29,5.05,1.4,7.06,1.11s4.37-1.19,5.39-3a3.51,3.51,0,0,0-1.55-5c-2.73-1.17-7.26,1.68-9,3.68-.15.17-2.19,3.14-2.13,3.16l.06,0c-.72.44-1.49.92-2.31,1.47-1.52,1-3.23,2.18-5,3.57a63.31,63.31,0,0,0-5.5,4.77,46.19,46.19,0,0,0-5.33,6.15l-.06.08c.27-.83.95-3.16,1-3.35.44-2.61-.24-7.92-2.87-9.29a3.52,3.52,0,0,0-4.84,2c-.78,1.95.06,4.39,1.09,6.08,1.16,1.91,5.15,4.63,5.47,4.85a61,61,0,0,0-4.22,7.14c-.73,1.43-1.43,2.9-2.11,4.38.21-.72.39-1.37.41-1.46.44-2.61-.24-7.92-2.87-9.29a3.52,3.52,0,0,0-4.84,2c-.77,1.94.06,4.38,1.09,6.08s4.4,4.1,5.3,4.73c-.25.57-.51,1.13-.77,1.71-1.21,2.74-2.4,5.48-3.66,8.14-.44.93-.91,1.84-1.38,2.75.19-.65.34-1.19.35-1.27.45-2.61-.23-7.92-2.87-9.29a3.51,3.51,0,0,0-4.84,2c-.77,1.94.07,4.38,1.09,6.07s4.08,3.88,5.15,4.62c-.51.92-1,1.83-1.55,2.7-.37.58-.69,1.17-1.1,1.73l-1.18,1.68c-.78,1-1.58,2.12-2.37,3.12-.55.7-1.08,1.35-1.61,2,.45-.92,1.29-2.76,1.34-2.92a13.48,13.48,0,0,0,.19-6.88,3.16,3.16,0,0,0,.18-.75,3.51,3.51,0,0,0-3.23-4.1c-3-.11-6.18,4.17-7.08,6.66-.05.15-.45,1.81-.69,2.86.05-.64.1-1.26.13-1.92.09-1.3.13-2.6.18-4,0-.68,0-1.36,0-2.05s-.05-1.41-.08-2.12c-.09-1.65-.26-3.31-.47-5,1.14.07,5.19.26,7.05-.44s4-2.09,4.62-4.09a3.51,3.51,0,0,0-2.57-4.55c-2.92-.56-6.74,3.19-8,5.52-.08.14-.8,1.91-1.18,2.89-.14-1-.26-2-.43-3-.49-2.93-1.07-5.87-1.64-8.81-.17-.9-.33-1.8-.5-2.7.4,0,5.21.36,7.3-.42,1.85-.7,4-2.09,4.62-4.1a3.52,3.52,0,0,0-2.58-4.55c-2.92-.55-6.74,3.19-8,5.52-.09.17-1.13,2.72-1.36,3.38-.37-2-.71-4-1-5.92a62.79,62.79,0,0,1-.58-8c.19,0,5.2.38,7.34-.42,1.85-.69,4-2.09,4.62-4.1a3.51,3.51,0,0,0-2.58-4.54c-2.91-.56-6.73,3.19-8,5.51-.09.16-.88,2.1-1.24,3l-.16,0a44.57,44.57,0,0,1,.87-8c.27-1.46.61-2.83,1-4.17.92.17,5.17.87,7.17.36s4.23-1.63,5-3.56a3.52,3.52,0,0,0-2.06-4.81c-2.84-.87-7.05,2.44-8.56,4.61-.09.12-.79,1.41-1.29,2.36.17-.6.34-1.22.51-1.79.66-2.15,1.4-4.07,2.07-5.77.38-1,.75-1.82,1.1-2.63,1-.31,5-1.63,6.5-3s3-3.4,2.83-5.49a3.5,3.5,0,0,0-4-3.31c-2.92.53-5.13,5.4-5.48,8,0,.23-.09,3.83,0,3.81h.06c-.35.76-.72,1.59-1.11,2.5-.71,1.68-1.49,3.6-2.19,5.74a60.55,60.55,0,0,0-2,7,45.69,45.69,0,0,0-1.06,8.08v.09c-.23-.83-1-3.15-1-3.33-1.08-2.42-4.57-6.47-7.52-6.16a3.52,3.52,0,0,0-2.95,4.32c.43,2.05,2.47,3.62,4.26,4.47,2,.95,6.86,1,7.24,1a64.85,64.85,0,0,0,.42,8.29c.18,1.6.41,3.21.66,4.82-.22-.72-.43-1.36-.46-1.45-1.08-2.42-4.57-6.47-7.52-6.16a3.51,3.51,0,0,0-2.95,4.32c.43,2.05,2.47,3.62,4.26,4.46s5.94,1,7,1c.11.61.2,1.23.31,1.85.5,2.95,1,5.9,1.44,8.81.14,1,.25,2,.36,3-.2-.64-.37-1.17-.4-1.25-1.08-2.43-4.57-6.48-7.52-6.16a3.5,3.5,0,0,0-2.95,4.31c.43,2.05,2.47,3.63,4.26,4.47s5.54,1,6.84,1c.08,1,.17,2.08.2,3.1,0,.69.06,1.35,0,2.05s0,1.37,0,2.05c-.08,1.3-.15,2.64-.26,3.91-.07.88-.15,1.72-.23,2.57-.14-1-.45-3-.49-3.18-.69-2.56-3.54-7.09-6.5-7.23a3.51,3.51,0,0,0-3.57,3.82c.12,2.09,1.9,4,3.54,5.06,1.81,1.22,6.39,2,7,2.11-.14,1.4-.28,2.76-.44,4-.55,4.44-1.17,8.11-1.64,10.68,0,.09,0,.17,0,.26l1.93.59c0-.17.06-.33.09-.51.41-2.61,1-6.33,1.41-10.83.15-1.42.28-2.94.39-4.5a38.44,38.44,0,0,0,4.44-.64c1,2,4.13,5,4.54,5.37-.88,1.1-1.76,2.15-2.6,3.13-2.9,3.4-5.45,6.13-7.25,8-.08.08-.14.15-.22.22l2.13.65c1.74-1.91,4.07-4.53,6.69-7.75.91-1.1,1.85-2.3,2.81-3.54.5.28,4.6,2.5,6.77,2.66,2,.15,4.53-.21,5.92-1.78A3.52,3.52,0,0,0,378.34,382.89Z" style="fill:#FF725E"></path><path d="M352.58,319.51c-.4-2.62-2.7-7.45-5.63-7.93a3.51,3.51,0,0,0-4,3.39c-.13,2.09,1.43,4.15,2.93,5.43,1.76,1.52,6.78,2.93,6.78,2.93S352.61,319.74,352.58,319.51Z" style="fill:#FF725E"></path><g style="opacity:0.30000000000000004"><path d="M391.9,330.71c.64,2.23,4,6.17,4,6.18s1.92-3,2-3.24c1.11-2.41,1.86-7.71-.32-9.72a3.51,3.51,0,0,0-5.19.63C391.19,326.23,391.35,328.81,391.9,330.71Z" style="fill:#fff"></path><path d="M378.34,382.89c-2.41-1.73-7.45.07-9.58,1.65-.13.1-1.37,1.26-2.15,2l1.17-1.53c.78-1,1.54-2.1,2.35-3.24l1.14-1.7c.39-.56.73-1.21,1.11-1.81.83-1.43,1.61-2.91,2.36-4.42.91.68,4.18,3.07,6.12,3.52s4.51.47,6.11-.87a3.51,3.51,0,0,0,.36-5.21c-2.13-2.07-7.38-1.06-9.72.18-.15.08-1.73,1.16-2.58,1.76.44-.91.89-1.82,1.31-2.75,1.2-2.71,2.34-5.49,3.49-8.25.35-.85.71-1.69,1.07-2.53.32.24,4.15,3.17,6.32,3.67,1.93.44,4.51.47,6.11-.87a3.5,3.5,0,0,0,.36-5.21c-2.12-2.07-7.38-1.06-9.72.18-.17.09-2.45,1.65-3,2.07.78-1.85,1.59-3.69,2.45-5.48a60.41,60.41,0,0,1,3.93-7c.14.11,4.13,3.19,6.35,3.7,1.93.44,4.51.47,6.11-.87a3.51,3.51,0,0,0,.36-5.21c-2.12-2.08-7.38-1.06-9.72.18-.15.08-1.88,1.26-2.7,1.85l-.12-.12a45.67,45.67,0,0,1,5.15-6.21c1-1.07,2.08-2,3.12-2.94.68.65,3.83,3.58,5.78,4.26s4.43,1,6.17-.19a3.52,3.52,0,0,0,.93-5.15c-1.88-2.29-7.21-1.85-9.68-.88-.13.05-1.43.74-2.38,1.26.48-.41,1-.83,1.42-1.21,1.74-1.43,3.41-2.62,4.9-3.67.86-.59,1.64-1.11,2.38-1.59,1,.29,5.05,1.4,7.06,1.11s4.37-1.19,5.39-3a3.51,3.51,0,0,0-1.55-5c-2.73-1.17-7.26,1.68-9,3.68-.15.17-2.19,3.14-2.13,3.16l.06,0c-.72.44-1.49.92-2.31,1.47-1.52,1-3.23,2.18-5,3.57a63.31,63.31,0,0,0-5.5,4.77,46.19,46.19,0,0,0-5.33,6.15l-.06.08c.27-.83.95-3.16,1-3.35.44-2.61-.24-7.92-2.87-9.29a3.52,3.52,0,0,0-4.84,2c-.78,1.95.06,4.39,1.09,6.08,1.16,1.91,5.15,4.63,5.47,4.85a61,61,0,0,0-4.22,7.14c-.73,1.43-1.43,2.9-2.11,4.38.21-.72.39-1.37.41-1.46.44-2.61-.24-7.92-2.87-9.29a3.52,3.52,0,0,0-4.84,2c-.77,1.94.06,4.38,1.09,6.08s4.4,4.1,5.3,4.73c-.25.57-.51,1.13-.77,1.71-1.21,2.74-2.4,5.48-3.66,8.14-.44.93-.91,1.84-1.38,2.75.19-.65.34-1.19.35-1.27.45-2.61-.23-7.92-2.87-9.29a3.51,3.51,0,0,0-4.84,2c-.77,1.94.07,4.38,1.09,6.07s4.08,3.88,5.15,4.62c-.51.92-1,1.83-1.55,2.7-.37.58-.69,1.17-1.1,1.73l-1.18,1.68c-.78,1-1.58,2.12-2.37,3.12-.55.7-1.08,1.35-1.61,2,.45-.92,1.29-2.76,1.34-2.92a13.48,13.48,0,0,0,.19-6.88,3.16,3.16,0,0,0,.18-.75,3.51,3.51,0,0,0-3.23-4.1c-3-.11-6.18,4.17-7.08,6.66-.05.15-.45,1.81-.69,2.86.05-.64.1-1.26.13-1.92.09-1.3.13-2.6.18-4,0-.68,0-1.36,0-2.05s-.05-1.41-.08-2.12c-.09-1.65-.26-3.31-.47-5,1.14.07,5.19.26,7.05-.44s4-2.09,4.62-4.09a3.51,3.51,0,0,0-2.57-4.55c-2.92-.56-6.74,3.19-8,5.52-.08.14-.8,1.91-1.18,2.89-.14-1-.26-2-.43-3-.49-2.93-1.07-5.87-1.64-8.81-.17-.9-.33-1.8-.5-2.7.4,0,5.21.36,7.3-.42,1.85-.7,4-2.09,4.62-4.1a3.52,3.52,0,0,0-2.58-4.55c-2.92-.55-6.74,3.19-8,5.52-.09.17-1.13,2.72-1.36,3.38-.37-2-.71-4-1-5.92a62.79,62.79,0,0,1-.58-8c.19,0,5.2.38,7.34-.42,1.85-.69,4-2.09,4.62-4.1a3.51,3.51,0,0,0-2.58-4.54c-2.91-.56-6.73,3.19-8,5.51-.09.16-.88,2.1-1.24,3l-.16,0a44.57,44.57,0,0,1,.87-8c.27-1.46.61-2.83,1-4.17.92.17,5.17.87,7.17.36s4.23-1.63,5-3.56a3.52,3.52,0,0,0-2.06-4.81c-2.84-.87-7.05,2.44-8.56,4.61-.09.12-.79,1.41-1.29,2.36.17-.6.34-1.22.51-1.79.66-2.15,1.4-4.07,2.07-5.77.38-1,.75-1.82,1.1-2.63,1-.31,5-1.63,6.5-3s3-3.4,2.83-5.49a3.5,3.5,0,0,0-4-3.31c-2.92.53-5.13,5.4-5.48,8,0,.23-.09,3.83,0,3.81h.06c-.35.76-.72,1.59-1.11,2.5-.71,1.68-1.49,3.6-2.19,5.74a60.55,60.55,0,0,0-2,7,45.69,45.69,0,0,0-1.06,8.08v.09c-.23-.83-1-3.15-1-3.33-1.08-2.42-4.57-6.47-7.52-6.16a3.52,3.52,0,0,0-2.95,4.32c.43,2.05,2.47,3.62,4.26,4.47,2,.95,6.86,1,7.24,1a64.85,64.85,0,0,0,.42,8.29c.18,1.6.41,3.21.66,4.82-.22-.72-.43-1.36-.46-1.45-1.08-2.42-4.57-6.47-7.52-6.16a3.51,3.51,0,0,0-2.95,4.32c.43,2.05,2.47,3.62,4.26,4.46s5.94,1,7,1c.11.61.2,1.23.31,1.85.5,2.95,1,5.9,1.44,8.81.14,1,.25,2,.36,3-.2-.64-.37-1.17-.4-1.25-1.08-2.43-4.57-6.48-7.52-6.16a3.5,3.5,0,0,0-2.95,4.31c.43,2.05,2.47,3.63,4.26,4.47s5.54,1,6.84,1c.08,1,.17,2.08.2,3.1,0,.69.06,1.35,0,2.05s0,1.37,0,2.05c-.08,1.3-.15,2.64-.26,3.91-.07.88-.15,1.72-.23,2.57-.14-1-.45-3-.49-3.18-.69-2.56-3.54-7.09-6.5-7.23a3.51,3.51,0,0,0-3.57,3.82c.12,2.09,1.9,4,3.54,5.06,1.81,1.22,6.39,2,7,2.11-.14,1.4-.28,2.76-.44,4-.55,4.44-1.17,8.11-1.64,10.68,0,.09,0,.17,0,.26l1.93.59c0-.17.06-.33.09-.51.41-2.61,1-6.33,1.41-10.83.15-1.42.28-2.94.39-4.5a38.44,38.44,0,0,0,4.44-.64c1,2,4.13,5,4.54,5.37-.88,1.1-1.76,2.15-2.6,3.13-2.9,3.4-5.45,6.13-7.25,8-.08.08-.14.15-.22.22l2.13.65c1.74-1.91,4.07-4.53,6.69-7.75.91-1.1,1.85-2.3,2.81-3.54.5.28,4.6,2.5,6.77,2.66,2,.15,4.53-.21,5.92-1.78A3.52,3.52,0,0,0,378.34,382.89Z" style="fill:#fff"></path><path d="M352.58,319.51c-.4-2.62-2.7-7.45-5.63-7.93a3.51,3.51,0,0,0-4,3.39c-.13,2.09,1.43,4.15,2.93,5.43,1.76,1.52,6.78,2.93,6.78,2.93S352.61,319.74,352.58,319.51Z" style="fill:#fff"></path></g><path d="M106.21,344.73c1.18,1.26,4.75,2.72,4.76,2.72s.24-2.65.24-2.82c-.07-2-1.37-5.71-3.48-6.31a2.61,2.61,0,0,0-3.22,2.16C104.24,342,105.22,343.66,106.21,344.73Z" style="fill:#FF725E"></path><path d="M114.8,383.77c-2.17-.33-4.89,2.55-5.77,4.31,0,.11-.48,1.3-.75,2.05.09-.47.18-.92.26-1.4.17-1,.31-1.91.47-2.93l.18-1.51c.07-.5.08-1,.12-1.57.07-1.22.09-2.46.07-3.71a17.57,17.57,0,0,0,5.23.27c1.43-.36,3.14-1.21,3.75-2.64a2.6,2.6,0,0,0-1.52-3.56c-2.1-.65-5.23,1.78-6.36,3.39-.07.1-.75,1.34-1.11,2,0-.75,0-1.5-.06-2.26-.12-2.19-.3-4.41-.47-6.63,0-.67-.1-1.35-.14-2,.29.06,3.81.71,5.41.31,1.42-.36,3.14-1.21,3.74-2.64a2.59,2.59,0,0,0-1.51-3.56c-2.1-.66-5.23,1.78-6.36,3.39-.09.12-1.07,1.91-1.29,2.38-.11-1.49-.19-3-.22-4.45a46.53,46.53,0,0,1,.24-5.94c.14,0,3.8.72,5.44.31,1.42-.35,3.14-1.2,3.75-2.63a2.62,2.62,0,0,0-1.52-3.57c-2.1-.65-5.23,1.79-6.36,3.39-.07.11-.82,1.47-1.16,2.13l-.12,0a32.68,32.68,0,0,1,1.32-5.83c.32-1.05.69-2,1.06-3,.67.2,3.74,1.07,5.26.87s3.25-.85,4-2.2a2.6,2.6,0,0,0-1.11-3.71c-2-.89-5.4,1.2-6.7,2.67-.07.08-.7,1-1.15,1.63.18-.43.36-.87.54-1.28.66-1.52,1.37-2.88,2-4.07.36-.68.71-1.28,1-1.85a17.31,17.31,0,0,0,5-1.64c1.2-.85,2.49-2.26,2.55-3.81a2.61,2.61,0,0,0-2.7-2.78c-2.2.15-4.24,3.55-4.71,5.46,0,.16-.39,2.81-.35,2.81h0c-.33.53-.67,1.11-1,1.75-.66,1.18-1.39,2.53-2.09,4a46.34,46.34,0,0,0-2,5,34.16,34.16,0,0,0-1.45,5.86.15.15,0,0,0,0,.07c-.1-.64-.44-2.41-.48-2.54-.59-1.88-2.82-5.15-5-5.17a2.6,2.6,0,0,0-2.54,2.93c.15,1.55,1.52,2.88,2.77,3.65,1.41.87,5,1.33,5.25,1.36a45.8,45.8,0,0,0-.39,6.14c0,1.2,0,2.4.08,3.61-.1-.55-.2-1-.22-1.11-.59-1.87-2.82-5.15-5-5.17a2.61,2.61,0,0,0-2.54,2.93c.15,1.55,1.52,2.88,2.77,3.65s4.29,1.24,5.09,1.35c0,.46,0,.92.07,1.39.12,2.22.26,4.43.32,6.61,0,.76,0,1.52,0,2.28-.09-.49-.17-.9-.19-1-.59-1.87-2.82-5.15-5-5.17a2.61,2.61,0,0,0-2.54,2.93c.15,1.55,1.52,2.88,2.77,3.65a16.48,16.48,0,0,0,5,1.32c0,.78-.05,1.55-.11,2.3-.06.51-.07,1-.15,1.52l-.21,1.51c-.17.95-.34,1.93-.52,2.85-.13.65-.26,1.26-.39,1.88,0-.77-.07-2.26-.09-2.39a10.05,10.05,0,0,0-2.19-4.6,2.7,2.7,0,0,0-.14-.56,2.6,2.6,0,0,0-3.51-1.63c-2,.93-2.68,4.84-2.44,6.79,0,.11.31,1.34.51,2.12-.19-.44-.36-.87-.56-1.31-.38-.89-.79-1.77-1.23-2.71-.22-.45-.45-.9-.68-1.35s-.51-.92-.76-1.38c-.62-1.06-1.29-2.1-2-3.14.77-.34,3.51-1.57,4.51-2.66s2-2.73,1.67-4.26a2.6,2.6,0,0,0-3.23-2.14c-2.11.62-3.38,4.38-3.43,6.34,0,.12.11,1.54.19,2.31-.43-.62-.85-1.24-1.3-1.85-1.31-1.77-2.68-3.52-4-5.27L87,371.08c.28-.11,3.57-1.51,4.68-2.73s2-2.73,1.68-4.26A2.61,2.61,0,0,0,90.16,362c-2.12.61-3.38,4.38-3.44,6.34,0,.15.17,2.18.24,2.69-.91-1.18-1.8-2.37-2.64-3.58a47.55,47.55,0,0,1-3.08-5.09c.13-.05,3.57-1.5,4.71-2.75,1-1.08,2-2.73,1.68-4.26a2.6,2.6,0,0,0-3.23-2.13c-2.12.61-3.38,4.37-3.44,6.33,0,.13.13,1.68.21,2.42l-.12,0a33.77,33.77,0,0,1-2.13-5.59c-.31-1.05-.54-2.08-.75-3.08.67-.21,3.71-1.17,4.86-2.18s2.24-2.5,2.13-4.05a2.61,2.61,0,0,0-3-2.48c-2.16.38-3.83,4-4.11,5.92,0,.11,0,1.2,0,2-.09-.46-.19-.92-.26-1.36-.29-1.64-.45-3.16-.58-4.5-.07-.77-.12-1.46-.15-2.11.55-.54,2.74-2.75,3.29-4.15s.83-3.26,0-4.58a2.6,2.6,0,0,0-3.78-.83c-1.75,1.33-1.58,5.3-.92,7.15.06.16,1.23,2.56,1.26,2.53l0,0c0,.62.06,1.3.11,2,.1,1.35.23,2.87.48,4.53a45.39,45.39,0,0,0,1.06,5.29,33.69,33.69,0,0,0,2,5.68l0,.07c-.44-.48-1.7-1.77-1.8-1.85-1.53-1.24-5.2-2.74-7-1.55a2.62,2.62,0,0,0-.49,3.85c1,1.21,2.85,1.56,4.32,1.52,1.65-.05,4.87-1.64,5.13-1.76a47.07,47.07,0,0,0,3.06,5.33c.66,1,1.35,2,2.06,3-.39-.4-.74-.75-.8-.79-1.52-1.24-5.19-2.74-7-1.55a2.61,2.61,0,0,0-.49,3.85c1,1.21,2.85,1.56,4.32,1.52a17.49,17.49,0,0,0,5-1.69l.82,1.12c1.33,1.78,2.66,3.55,3.91,5.33.45.63.86,1.26,1.27,1.9-.34-.36-.64-.65-.69-.69-1.52-1.24-5.19-2.74-7-1.55a2.61,2.61,0,0,0-.49,3.85c1,1.21,2.85,1.56,4.32,1.52a16.83,16.83,0,0,0,4.85-1.63c.41.66.82,1.32,1.18,2,.24.45.5.88.71,1.35l.66,1.37c.38.88.79,1.8,1.14,2.67.25.61.48,1.19.71,1.77-.43-.62-1.31-1.84-1.39-1.93-1.32-1.46-4.72-3.5-6.73-2.59A2.6,2.6,0,0,0,89,390.24c.78,1.34,2.59,2,4,2.16s4.9-.83,5.31-1c.38,1,.74,1.92,1.06,2.82,1.14,3.12,2,5.76,2.51,7.61l.06.19,1.47-.26c0-.12-.07-.24-.11-.36-.6-1.87-1.49-4.51-2.71-7.63-.38-1-.81-2-1.25-3.11a28.77,28.77,0,0,0,2.71-1.92,19.17,19.17,0,0,0,4.81,2c-.22,1-.44,2-.67,2.94-.77,3.22-1.54,5.88-2.1,7.73a1.72,1.72,0,0,1-.07.21l1.62-.28c.52-1.85,1.17-4.37,1.82-7.37.23-1,.45-2.15.67-3.29.42,0,3.88.11,5.37-.52s2.92-1.66,3.3-3.17A2.59,2.59,0,0,0,114.8,383.77Z" style="fill:#FF725E"></path><path d="M76.47,350.56c-1.15-1.6-4.29-4-6.39-3.35a2.61,2.61,0,0,0-1.49,3.58c.62,1.42,2.34,2.26,3.77,2.6,1.67.41,5.46-.35,5.46-.35S76.56,350.7,76.47,350.56Z" style="fill:#FF725E"></path><g style="opacity:0.30000000000000004"><path d="M106.21,344.73c1.18,1.26,4.75,2.72,4.76,2.72s.24-2.65.24-2.82c-.07-2-1.37-5.71-3.48-6.31a2.61,2.61,0,0,0-3.22,2.16C104.24,342,105.22,343.66,106.21,344.73Z" style="fill:#fff"></path><path d="M114.8,383.77c-2.17-.33-4.89,2.55-5.77,4.31,0,.11-.48,1.3-.75,2.05.09-.47.18-.92.26-1.4.17-1,.31-1.91.47-2.93l.18-1.51c.07-.5.08-1,.12-1.57.07-1.22.09-2.46.07-3.71a17.57,17.57,0,0,0,5.23.27c1.43-.36,3.14-1.21,3.75-2.64a2.6,2.6,0,0,0-1.52-3.56c-2.1-.65-5.23,1.78-6.36,3.39-.07.1-.75,1.34-1.11,2,0-.75,0-1.5-.06-2.26-.12-2.19-.3-4.41-.47-6.63,0-.67-.1-1.35-.14-2,.29.06,3.81.71,5.41.31,1.42-.36,3.14-1.21,3.74-2.64a2.59,2.59,0,0,0-1.51-3.56c-2.1-.66-5.23,1.78-6.36,3.39-.09.12-1.07,1.91-1.29,2.38-.11-1.49-.19-3-.22-4.45a46.53,46.53,0,0,1,.24-5.94c.14,0,3.8.72,5.44.31,1.42-.35,3.14-1.2,3.75-2.63a2.62,2.62,0,0,0-1.52-3.57c-2.1-.65-5.23,1.79-6.36,3.39-.07.11-.82,1.47-1.16,2.13l-.12,0a32.68,32.68,0,0,1,1.32-5.83c.32-1.05.69-2,1.06-3,.67.2,3.74,1.07,5.26.87s3.25-.85,4-2.2a2.6,2.6,0,0,0-1.11-3.71c-2-.89-5.4,1.2-6.7,2.67-.07.08-.7,1-1.15,1.63.18-.43.36-.87.54-1.28.66-1.52,1.37-2.88,2-4.07.36-.68.71-1.28,1-1.85a17.31,17.31,0,0,0,5-1.64c1.2-.85,2.49-2.26,2.55-3.81a2.61,2.61,0,0,0-2.7-2.78c-2.2.15-4.24,3.55-4.71,5.46,0,.16-.39,2.81-.35,2.81h0c-.33.53-.67,1.11-1,1.75-.66,1.18-1.39,2.53-2.09,4a46.34,46.34,0,0,0-2,5,34.16,34.16,0,0,0-1.45,5.86.15.15,0,0,0,0,.07c-.1-.64-.44-2.41-.48-2.54-.59-1.88-2.82-5.15-5-5.17a2.6,2.6,0,0,0-2.54,2.93c.15,1.55,1.52,2.88,2.77,3.65,1.41.87,5,1.33,5.25,1.36a45.8,45.8,0,0,0-.39,6.14c0,1.2,0,2.4.08,3.61-.1-.55-.2-1-.22-1.11-.59-1.87-2.82-5.15-5-5.17a2.61,2.61,0,0,0-2.54,2.93c.15,1.55,1.52,2.88,2.77,3.65s4.29,1.24,5.09,1.35c0,.46,0,.92.07,1.39.12,2.22.26,4.43.32,6.61,0,.76,0,1.52,0,2.28-.09-.49-.17-.9-.19-1-.59-1.87-2.82-5.15-5-5.17a2.61,2.61,0,0,0-2.54,2.93c.15,1.55,1.52,2.88,2.77,3.65a16.48,16.48,0,0,0,5,1.32c0,.78-.05,1.55-.11,2.3-.06.51-.07,1-.15,1.52l-.21,1.51c-.17.95-.34,1.93-.52,2.85-.13.65-.26,1.26-.39,1.88,0-.77-.07-2.26-.09-2.39a10.05,10.05,0,0,0-2.19-4.6,2.7,2.7,0,0,0-.14-.56,2.6,2.6,0,0,0-3.51-1.63c-2,.93-2.68,4.84-2.44,6.79,0,.11.31,1.34.51,2.12-.19-.44-.36-.87-.56-1.31-.38-.89-.79-1.77-1.23-2.71-.22-.45-.45-.9-.68-1.35s-.51-.92-.76-1.38c-.62-1.06-1.29-2.1-2-3.14.77-.34,3.51-1.57,4.51-2.66s2-2.73,1.67-4.26a2.6,2.6,0,0,0-3.23-2.14c-2.11.62-3.38,4.38-3.43,6.34,0,.12.11,1.54.19,2.31-.43-.62-.85-1.24-1.3-1.85-1.31-1.77-2.68-3.52-4-5.27L87,371.08c.28-.11,3.57-1.51,4.68-2.73s2-2.73,1.68-4.26A2.61,2.61,0,0,0,90.16,362c-2.12.61-3.38,4.38-3.44,6.34,0,.15.17,2.18.24,2.69-.91-1.18-1.8-2.37-2.64-3.58a47.55,47.55,0,0,1-3.08-5.09c.13-.05,3.57-1.5,4.71-2.75,1-1.08,2-2.73,1.68-4.26a2.6,2.6,0,0,0-3.23-2.13c-2.12.61-3.38,4.37-3.44,6.33,0,.13.13,1.68.21,2.42l-.12,0a33.77,33.77,0,0,1-2.13-5.59c-.31-1.05-.54-2.08-.75-3.08.67-.21,3.71-1.17,4.86-2.18s2.24-2.5,2.13-4.05a2.61,2.61,0,0,0-3-2.48c-2.16.38-3.83,4-4.11,5.92,0,.11,0,1.2,0,2-.09-.46-.19-.92-.26-1.36-.29-1.64-.45-3.16-.58-4.5-.07-.77-.12-1.46-.15-2.11.55-.54,2.74-2.75,3.29-4.15s.83-3.26,0-4.58a2.6,2.6,0,0,0-3.78-.83c-1.75,1.33-1.58,5.3-.92,7.15.06.16,1.23,2.56,1.26,2.53l0,0c0,.62.06,1.3.11,2,.1,1.35.23,2.87.48,4.53a45.39,45.39,0,0,0,1.06,5.29,33.69,33.69,0,0,0,2,5.68l0,.07c-.44-.48-1.7-1.77-1.8-1.85-1.53-1.24-5.2-2.74-7-1.55a2.62,2.62,0,0,0-.49,3.85c1,1.21,2.85,1.56,4.32,1.52,1.65-.05,4.87-1.64,5.13-1.76a47.07,47.07,0,0,0,3.06,5.33c.66,1,1.35,2,2.06,3-.39-.4-.74-.75-.8-.79-1.52-1.24-5.19-2.74-7-1.55a2.61,2.61,0,0,0-.49,3.85c1,1.21,2.85,1.56,4.32,1.52a17.49,17.49,0,0,0,5-1.69l.82,1.12c1.33,1.78,2.66,3.55,3.91,5.33.45.63.86,1.26,1.27,1.9-.34-.36-.64-.65-.69-.69-1.52-1.24-5.19-2.74-7-1.55a2.61,2.61,0,0,0-.49,3.85c1,1.21,2.85,1.56,4.32,1.52a16.83,16.83,0,0,0,4.85-1.63c.41.66.82,1.32,1.18,2,.24.45.5.88.71,1.35l.66,1.37c.38.88.79,1.8,1.14,2.67.25.61.48,1.19.71,1.77-.43-.62-1.31-1.84-1.39-1.93-1.32-1.46-4.72-3.5-6.73-2.59A2.6,2.6,0,0,0,89,390.24c.78,1.34,2.59,2,4,2.16s4.9-.83,5.31-1c.38,1,.74,1.92,1.06,2.82,1.14,3.12,2,5.76,2.51,7.61l.06.19,1.47-.26c0-.12-.07-.24-.11-.36-.6-1.87-1.49-4.51-2.71-7.63-.38-1-.81-2-1.25-3.11a28.77,28.77,0,0,0,2.71-1.92,19.17,19.17,0,0,0,4.81,2c-.22,1-.44,2-.67,2.94-.77,3.22-1.54,5.88-2.1,7.73a1.72,1.72,0,0,1-.07.21l1.62-.28c.52-1.85,1.17-4.37,1.82-7.37.23-1,.45-2.15.67-3.29.42,0,3.88.11,5.37-.52s2.92-1.66,3.3-3.17A2.59,2.59,0,0,0,114.8,383.77Z" style="fill:#fff"></path><path d="M76.47,350.56c-1.15-1.6-4.29-4-6.39-3.35a2.61,2.61,0,0,0-1.49,3.58c.62,1.42,2.34,2.26,3.77,2.6,1.67.41,5.46-.35,5.46-.35S76.56,350.7,76.47,350.56Z" style="fill:#fff"></path></g><path d="M153.19,309.88c1.7,1.83,6.91,4,6.91,4s.36-3.86.35-4.1c-.1-2.86-2-8.32-5.06-9.19a3.78,3.78,0,0,0-4.68,3.14C150.31,305.92,151.73,308.31,153.19,309.88Z" style="fill:#FF725E"></path><path d="M165.69,366.7c-3.17-.48-7.13,3.72-8.4,6.28-.08.15-.71,1.88-1.09,3,.13-.68.26-1.34.38-2,.24-1.38.45-2.77.68-4.26.08-.73.17-1.46.25-2.2s.12-1.52.18-2.28c.11-1.78.13-3.59.11-5.41,1.21.21,5.53.91,7.61.39s4.57-1.75,5.46-3.83a3.8,3.8,0,0,0-2.21-5.19c-3.06-.95-7.61,2.6-9.26,4.94-.1.14-1.1,1.95-1.62,3,0-1.1,0-2.19-.09-3.3-.17-3.19-.43-6.42-.68-9.64-.08-1-.14-2-.21-3,.43.08,5.55,1,7.88.44,2.07-.51,4.56-1.75,5.45-3.83a3.78,3.78,0,0,0-2.21-5.19c-3-.95-7.61,2.6-9.25,4.94-.13.17-1.55,2.78-1.88,3.46-.15-2.17-.28-4.33-.32-6.47a66.54,66.54,0,0,1,.35-8.65c.2,0,5.53,1.05,7.92.45,2.07-.52,4.57-1.75,5.45-3.83a3.79,3.79,0,0,0-2.2-5.19c-3.06-.95-7.62,2.6-9.26,4.94-.11.15-1.2,2.13-1.69,3.09l-.18-.05a48.91,48.91,0,0,1,1.92-8.5c.47-1.52,1-3,1.55-4.35,1,.29,5.44,1.57,7.65,1.27s4.74-1.24,5.85-3.21a3.79,3.79,0,0,0-1.63-5.4c-2.93-1.28-7.85,1.75-9.74,3.89-.11.11-1,1.42-1.67,2.37.25-.62.51-1.27.77-1.86,1-2.21,2-4.19,2.91-5.93.54-1,1-1.86,1.51-2.68,1.11-.21,5.54-1.14,7.33-2.4s3.63-3.28,3.71-5.54a3.78,3.78,0,0,0-3.93-4c-3.19.21-6.16,5.17-6.86,7.94-.06.24-.56,4.1-.5,4.09h.06c-.47.77-1,1.61-1.5,2.54-1,1.73-2,3.68-3,5.89a66.53,66.53,0,0,0-3,7.27,50,50,0,0,0-2.12,8.53.34.34,0,0,1,0,.1c-.15-.92-.64-3.5-.7-3.69-.86-2.73-4.11-7.5-7.31-7.53a3.79,3.79,0,0,0-3.69,4.27c.21,2.25,2.21,4.19,4,5.31,2,1.27,7.22,1.93,7.64,2a67,67,0,0,0-.57,8.93c0,1.74,0,3.49.12,5.25-.15-.8-.29-1.51-.33-1.61-.85-2.73-4.1-7.5-7.31-7.52a3.78,3.78,0,0,0-3.68,4.26c.21,2.25,2.21,4.19,4,5.32s6.25,1.79,7.42,1.95c0,.68.06,1.35.1,2,.18,3.23.37,6.46.46,9.63,0,1.11,0,2.21,0,3.31-.13-.7-.25-1.3-.28-1.39-.86-2.73-4.11-7.5-7.31-7.52a3.79,3.79,0,0,0-3.69,4.26c.21,2.25,2.21,4.19,4,5.32s5.82,1.73,7.2,1.92c0,1.13-.07,2.26-.16,3.35-.08.74-.1,1.47-.22,2.21s-.2,1.47-.3,2.19c-.25,1.38-.49,2.82-.76,4.16-.19.94-.38,1.83-.57,2.73,0-1.12-.1-3.29-.13-3.47a14.65,14.65,0,0,0-3.18-6.71,4.67,4.67,0,0,0-.2-.82,3.79,3.79,0,0,0-5.12-2.36c-2.91,1.35-3.9,7-3.55,9.88,0,.16.45,2,.74,3.08-.27-.63-.52-1.25-.81-1.91-.56-1.29-1.15-2.56-1.79-3.93l-1-2c-.32-.66-.74-1.32-1.11-2-.9-1.54-1.88-3.06-2.9-4.57,1.13-.49,5.12-2.29,6.57-3.87s2.84-4,2.43-6.2a3.78,3.78,0,0,0-4.7-3.11c-3.08.89-4.92,6.36-5,9.22,0,.18.17,2.24.28,3.37-.62-.91-1.23-1.81-1.89-2.7-1.9-2.58-3.9-5.12-5.89-7.67-.61-.78-1.2-1.57-1.8-2.35.4-.17,5.18-2.21,6.81-4,1.44-1.58,2.84-4,2.43-6.21a3.79,3.79,0,0,0-4.7-3.11c-3.08.9-4.92,6.37-5,9.23,0,.21.24,3.17.35,3.92-1.33-1.72-2.63-3.46-3.84-5.22a67.5,67.5,0,0,1-4.48-7.4c.19-.08,5.19-2.19,6.85-4,1.45-1.57,2.85-4,2.44-6.2a3.79,3.79,0,0,0-4.7-3.12c-3.08.9-4.92,6.37-5,9.23,0,.19.18,2.44.29,3.51l-.17.05a49,49,0,0,1-3.09-8.13c-.45-1.54-.8-3-1.1-4.49,1-.3,5.4-1.7,7.08-3.17s3.26-3.64,3.1-5.9a3.8,3.8,0,0,0-4.33-3.61c-3.16.55-5.59,5.79-6,8.62,0,.16-.06,1.75-.08,2.91-.13-.66-.27-1.34-.38-2-.42-2.39-.65-4.6-.84-6.55-.1-1.12-.17-2.13-.22-3.08.8-.78,4-4,4.79-6s1.22-4.74,0-6.66a3.79,3.79,0,0,0-5.51-1.21c-2.55,1.94-2.29,7.71-1.34,10.41.08.23,1.79,3.73,1.83,3.69l0-.05c0,.91.08,1.89.15,2.95.15,2,.34,4.19.7,6.59a66.87,66.87,0,0,0,1.55,7.7,49.78,49.78,0,0,0,2.93,8.28l0,.1c-.63-.69-2.47-2.57-2.62-2.7-2.22-1.8-7.57-4-10.25-2.24a3.78,3.78,0,0,0-.72,5.59c1.41,1.76,4.15,2.27,6.29,2.21,2.4-.07,7.09-2.37,7.46-2.56a66.77,66.77,0,0,0,4.46,7.76c1,1.46,2,2.89,3,4.32-.56-.58-1.07-1.1-1.15-1.16-2.22-1.81-7.57-4-10.25-2.25a3.79,3.79,0,0,0-.72,5.6c1.41,1.76,4.15,2.27,6.29,2.21s6.2-2,7.26-2.46c.4.54.79,1.09,1.2,1.63,1.93,2.59,3.87,5.18,5.69,7.77.65.91,1.25,1.83,1.85,2.75-.5-.51-.93-.94-1-1-2.22-1.8-7.57-4-10.25-2.25a3.79,3.79,0,0,0-.72,5.6c1.41,1.76,4.15,2.27,6.29,2.21s5.8-1.77,7.07-2.37c.59,1,1.18,1.92,1.71,2.88.34.67.72,1.28,1,2s.64,1.34,1,2c.56,1.29,1.15,2.62,1.66,3.89.37.88.7,1.73,1,2.58-.63-.91-1.9-2.68-2-2.82-1.92-2.12-6.87-5.08-9.79-3.77a3.79,3.79,0,0,0-1.56,5.42c1.13,2,3.76,2.88,5.88,3.14,2.33.29,7.13-1.2,7.73-1.38.55,1.41,1.07,2.79,1.54,4.1,1.66,4.54,2.86,8.38,3.66,11.07,0,.1.05.19.08.28l2.15-.38c-.06-.17-.11-.34-.17-.53-.88-2.71-2.17-6.56-3.94-11.11-.55-1.44-1.18-3-1.83-4.52a41.67,41.67,0,0,0,4-2.79c1.92,1.47,6.42,2.78,7,2.95-.32,1.48-.65,2.92-1,4.28-1.12,4.69-2.24,8.56-3.06,11.25l-.09.31,2.36-.41c.74-2.7,1.69-6.35,2.64-10.73.33-1.51.66-3.12,1-4.78.62,0,5.65.15,7.82-.76,2-.83,4.25-2.42,4.81-4.61A3.8,3.8,0,0,0,165.69,366.7Z" style="fill:#FF725E"></path><path d="M109.88,318.36c-1.66-2.33-6.24-5.85-9.29-4.87a3.78,3.78,0,0,0-2.17,5.2c.9,2.08,3.4,3.29,5.48,3.79,2.44.59,7.95-.51,8-.51S110,318.56,109.88,318.36Z" style="fill:#FF725E"></path><g style="opacity:0.30000000000000004"><path d="M153.19,309.88c1.7,1.83,6.91,4,6.91,4s.36-3.86.35-4.1c-.1-2.86-2-8.32-5.06-9.19a3.78,3.78,0,0,0-4.68,3.14C150.31,305.92,151.73,308.31,153.19,309.88Z" style="fill:#fff"></path><path d="M165.69,366.7c-3.17-.48-7.13,3.72-8.4,6.28-.08.15-.71,1.88-1.09,3,.13-.68.26-1.34.38-2,.24-1.38.45-2.77.68-4.26.08-.73.17-1.46.25-2.2s.12-1.52.18-2.28c.11-1.78.13-3.59.11-5.41,1.21.21,5.53.91,7.61.39s4.57-1.75,5.46-3.83a3.8,3.8,0,0,0-2.21-5.19c-3.06-.95-7.61,2.6-9.26,4.94-.1.14-1.1,1.95-1.62,3,0-1.1,0-2.19-.09-3.3-.17-3.19-.43-6.42-.68-9.64-.08-1-.14-2-.21-3,.43.08,5.55,1,7.88.44,2.07-.51,4.56-1.75,5.45-3.83a3.78,3.78,0,0,0-2.21-5.19c-3-.95-7.61,2.6-9.25,4.94-.13.17-1.55,2.78-1.88,3.46-.15-2.17-.28-4.33-.32-6.47a66.54,66.54,0,0,1,.35-8.65c.2,0,5.53,1.05,7.92.45,2.07-.52,4.57-1.75,5.45-3.83a3.79,3.79,0,0,0-2.2-5.19c-3.06-.95-7.62,2.6-9.26,4.94-.11.15-1.2,2.13-1.69,3.09l-.18-.05a48.91,48.91,0,0,1,1.92-8.5c.47-1.52,1-3,1.55-4.35,1,.29,5.44,1.57,7.65,1.27s4.74-1.24,5.85-3.21a3.79,3.79,0,0,0-1.63-5.4c-2.93-1.28-7.85,1.75-9.74,3.89-.11.11-1,1.42-1.67,2.37.25-.62.51-1.27.77-1.86,1-2.21,2-4.19,2.91-5.93.54-1,1-1.86,1.51-2.68,1.11-.21,5.54-1.14,7.33-2.4s3.63-3.28,3.71-5.54a3.78,3.78,0,0,0-3.93-4c-3.19.21-6.16,5.17-6.86,7.94-.06.24-.56,4.1-.5,4.09h.06c-.47.77-1,1.61-1.5,2.54-1,1.73-2,3.68-3,5.89a66.53,66.53,0,0,0-3,7.27,50,50,0,0,0-2.12,8.53.34.34,0,0,1,0,.1c-.15-.92-.64-3.5-.7-3.69-.86-2.73-4.11-7.5-7.31-7.53a3.79,3.79,0,0,0-3.69,4.27c.21,2.25,2.21,4.19,4,5.31,2,1.27,7.22,1.93,7.64,2a67,67,0,0,0-.57,8.93c0,1.74,0,3.49.12,5.25-.15-.8-.29-1.51-.33-1.61-.85-2.73-4.1-7.5-7.31-7.52a3.78,3.78,0,0,0-3.68,4.26c.21,2.25,2.21,4.19,4,5.32s6.25,1.79,7.42,1.95c0,.68.06,1.35.1,2,.18,3.23.37,6.46.46,9.63,0,1.11,0,2.21,0,3.31-.13-.7-.25-1.3-.28-1.39-.86-2.73-4.11-7.5-7.31-7.52a3.79,3.79,0,0,0-3.69,4.26c.21,2.25,2.21,4.19,4,5.32s5.82,1.73,7.2,1.92c0,1.13-.07,2.26-.16,3.35-.08.74-.1,1.47-.22,2.21s-.2,1.47-.3,2.19c-.25,1.38-.49,2.82-.76,4.16-.19.94-.38,1.83-.57,2.73,0-1.12-.1-3.29-.13-3.47a14.65,14.65,0,0,0-3.18-6.71,4.67,4.67,0,0,0-.2-.82,3.79,3.79,0,0,0-5.12-2.36c-2.91,1.35-3.9,7-3.55,9.88,0,.16.45,2,.74,3.08-.27-.63-.52-1.25-.81-1.91-.56-1.29-1.15-2.56-1.79-3.93l-1-2c-.32-.66-.74-1.32-1.11-2-.9-1.54-1.88-3.06-2.9-4.57,1.13-.49,5.12-2.29,6.57-3.87s2.84-4,2.43-6.2a3.78,3.78,0,0,0-4.7-3.11c-3.08.89-4.92,6.36-5,9.22,0,.18.17,2.24.28,3.37-.62-.91-1.23-1.81-1.89-2.7-1.9-2.58-3.9-5.12-5.89-7.67-.61-.78-1.2-1.57-1.8-2.35.4-.17,5.18-2.21,6.81-4,1.44-1.58,2.84-4,2.43-6.21a3.79,3.79,0,0,0-4.7-3.11c-3.08.9-4.92,6.37-5,9.23,0,.21.24,3.17.35,3.92-1.33-1.72-2.63-3.46-3.84-5.22a67.5,67.5,0,0,1-4.48-7.4c.19-.08,5.19-2.19,6.85-4,1.45-1.57,2.85-4,2.44-6.2a3.79,3.79,0,0,0-4.7-3.12c-3.08.9-4.92,6.37-5,9.23,0,.19.18,2.44.29,3.51l-.17.05a49,49,0,0,1-3.09-8.13c-.45-1.54-.8-3-1.1-4.49,1-.3,5.4-1.7,7.08-3.17s3.26-3.64,3.1-5.9a3.8,3.8,0,0,0-4.33-3.61c-3.16.55-5.59,5.79-6,8.62,0,.16-.06,1.75-.08,2.91-.13-.66-.27-1.34-.38-2-.42-2.39-.65-4.6-.84-6.55-.1-1.12-.17-2.13-.22-3.08.8-.78,4-4,4.79-6s1.22-4.74,0-6.66a3.79,3.79,0,0,0-5.51-1.21c-2.55,1.94-2.29,7.71-1.34,10.41.08.23,1.79,3.73,1.83,3.69l0-.05c0,.91.08,1.89.15,2.95.15,2,.34,4.19.7,6.59a66.87,66.87,0,0,0,1.55,7.7,49.78,49.78,0,0,0,2.93,8.28l0,.1c-.63-.69-2.47-2.57-2.62-2.7-2.22-1.8-7.57-4-10.25-2.24a3.78,3.78,0,0,0-.72,5.59c1.41,1.76,4.15,2.27,6.29,2.21,2.4-.07,7.09-2.37,7.46-2.56a66.77,66.77,0,0,0,4.46,7.76c1,1.46,2,2.89,3,4.32-.56-.58-1.07-1.1-1.15-1.16-2.22-1.81-7.57-4-10.25-2.25a3.79,3.79,0,0,0-.72,5.6c1.41,1.76,4.15,2.27,6.29,2.21s6.2-2,7.26-2.46c.4.54.79,1.09,1.2,1.63,1.93,2.59,3.87,5.18,5.69,7.77.65.91,1.25,1.83,1.85,2.75-.5-.51-.93-.94-1-1-2.22-1.8-7.57-4-10.25-2.25a3.79,3.79,0,0,0-.72,5.6c1.41,1.76,4.15,2.27,6.29,2.21s5.8-1.77,7.07-2.37c.59,1,1.18,1.92,1.71,2.88.34.67.72,1.28,1,2s.64,1.34,1,2c.56,1.29,1.15,2.62,1.66,3.89.37.88.7,1.73,1,2.58-.63-.91-1.9-2.68-2-2.82-1.92-2.12-6.87-5.08-9.79-3.77a3.79,3.79,0,0,0-1.56,5.42c1.13,2,3.76,2.88,5.88,3.14,2.33.29,7.13-1.2,7.73-1.38.55,1.41,1.07,2.79,1.54,4.1,1.66,4.54,2.86,8.38,3.66,11.07,0,.1.05.19.08.28l2.15-.38c-.06-.17-.11-.34-.17-.53-.88-2.71-2.17-6.56-3.94-11.11-.55-1.44-1.18-3-1.83-4.52a41.67,41.67,0,0,0,4-2.79c1.92,1.47,6.42,2.78,7,2.95-.32,1.48-.65,2.92-1,4.28-1.12,4.69-2.24,8.56-3.06,11.25l-.09.31,2.36-.41c.74-2.7,1.69-6.35,2.64-10.73.33-1.51.66-3.12,1-4.78.62,0,5.65.15,7.82-.76,2-.83,4.25-2.42,4.81-4.61A3.8,3.8,0,0,0,165.69,366.7Z" style="fill:#fff"></path><path d="M109.88,318.36c-1.66-2.33-6.24-5.85-9.29-4.87a3.78,3.78,0,0,0-2.17,5.2c.9,2.08,3.4,3.29,5.48,3.79,2.44.59,7.95-.51,8-.51S110,318.56,109.88,318.36Z" style="fill:#fff"></path></g></g><g id="freepik--Floor--inject-26"><ellipse cx="241.79" cy="408.38" rx="155.98" ry="23.94" style="fill:#FF725E"></ellipse><ellipse cx="241.79" cy="408.38" rx="155.98" ry="23.94" style="fill:#fff;opacity:0.5"></ellipse><ellipse cx="241.79" cy="406.13" rx="95.38" ry="14.64" style="fill:none;stroke:#fff;stroke-miterlimit:10"></ellipse><ellipse cx="241.79" cy="406.13" rx="58.49" ry="8.98" style="fill:none;stroke:#fff;stroke-miterlimit:10"></ellipse><ellipse cx="241.79" cy="406.13" rx="34.12" ry="5.24" style="fill:none;stroke:#fff;stroke-miterlimit:10"></ellipse><ellipse cx="241.79" cy="406.13" rx="12.34" ry="1.89" style="fill:none;stroke:#fff;stroke-miterlimit:10"></ellipse></g><g id="freepik--Lines--inject-26"><line x1="309.75" y1="278.25" x2="309.75" y2="268.9" style="fill:none;stroke:#263238;stroke-linecap:round;stroke-linejoin:round"></line><line x1="309.75" y1="263.5" x2="309.75" y2="257.26" style="fill:none;stroke:#263238;stroke-linecap:round;stroke-linejoin:round"></line><line x1="334.66" y1="257.27" x2="334.66" y2="239.41" style="fill:none;stroke:#263238;stroke-linecap:round;stroke-linejoin:round"></line><line x1="304.76" y1="229.03" x2="304.76" y2="211.17" style="fill:none;stroke:#263238;stroke-linecap:round;stroke-linejoin:round"></line><line x1="304.76" y1="204.11" x2="304.76" y2="194.15" style="fill:none;stroke:#263238;stroke-linecap:round;stroke-linejoin:round"></line><line x1="304.76" y1="160.65" x2="304.76" y2="150.68" style="fill:none;stroke:#263238;stroke-linecap:round;stroke-linejoin:round"></line><line x1="316.87" y1="200.81" x2="316.87" y2="177.49" style="fill:none;stroke:#263238;stroke-linecap:round;stroke-linejoin:round"></line><line x1="321.37" y1="246.06" x2="321.37" y2="236.09" style="fill:none;stroke:#263238;stroke-linecap:round;stroke-linejoin:round"></line><line x1="279.43" y1="181.27" x2="279.43" y2="171.3" style="fill:none;stroke:#263238;stroke-linecap:round;stroke-linejoin:round"></line><line x1="227.1" y1="239.41" x2="227.1" y2="229.45" style="fill:none;stroke:#263238;stroke-linecap:round;stroke-linejoin:round"></line><line x1="334.66" y1="236.51" x2="334.66" y2="201.21" style="fill:none;stroke:#263238;stroke-linecap:round;stroke-linejoin:round"></line><line x1="157.74" y1="266.21" x2="157.74" y2="238.13" style="fill:none;stroke:#263238;stroke-linecap:round;stroke-linejoin:round"></line><line x1="157.74" y1="232.57" x2="157.74" y2="223.22" style="fill:none;stroke:#263238;stroke-linecap:round;stroke-linejoin:round"></line><line x1="200.1" y1="294.87" x2="200.1" y2="285.51" style="fill:none;stroke:#263238;stroke-linecap:round;stroke-linejoin:round"></line><line x1="200.1" y1="280.33" x2="200.1" y2="270.98" style="fill:none;stroke:#263238;stroke-linecap:round;stroke-linejoin:round"></line><line x1="172.69" y1="256.66" x2="172.69" y2="247.31" style="fill:none;stroke:#263238;stroke-linecap:round;stroke-linejoin:round"></line><line x1="172.69" y1="191.24" x2="172.69" y2="181.89" style="fill:none;stroke:#263238;stroke-linecap:round;stroke-linejoin:round"></line><line x1="188.06" y1="226.34" x2="188.06" y2="194.98" style="fill:none;stroke:#263238;stroke-linecap:round;stroke-linejoin:round"></line></g><g id="freepik--Character--inject-26"><path d="M136.87,334.5s-2.37,2.22,4.5,9.33,19.45,25.38,34.62,20.63,14.47-18.25,29.64-22.52,22.29,2.37,20.16,8.77-13,13.52-7.83,19.92,13,3.56,25.85-4,28-18.73,32.49-14.23-.26,12.56-1.2,16.95,9.26,1.31,12.1-2,9-15.65,13.76-15.65,6.75,10.31,12.5,12c0,0,5.52-2.55,6.23-4.44a8.49,8.49,0,0,1,1.66-2.85s4.27,5.46,7.35,6.88,3.32,0,3.32,0,5.22-10.91,8.3-19.68-8.06-16.6-15.18-18.73-24.9-10-34.85-24.43-20.16-34.62-28-34.62-16.37,8.3-38.89,24.9-58.81,29.88-66.87,33S140.9,328.72,136.87,334.5Z" style="fill:#FF725E"></path><g style="clip-path:url(#freepik--clip-path--inject-26)"><path d="M136.87,334.5s-2.37,2.22,4.5,9.33,19.45,25.38,34.62,20.63,14.47-18.25,29.64-22.52,22.29,2.37,20.16,8.77-13,13.52-7.83,19.92,13,3.56,25.85-4,28-18.73,32.49-14.23-.26,12.56-1.2,16.95,9.26,1.31,12.1-2,9-15.65,13.76-15.65,6.75,10.31,12.5,12c0,0,5.52-2.55,6.23-4.44a8.49,8.49,0,0,1,1.66-2.85s4.27,5.46,7.35,6.88,3.32,0,3.32,0,5.22-10.91,8.3-19.68-8.06-16.6-15.18-18.73-24.9-10-34.85-24.43-20.16-34.62-28-34.62-16.37,8.3-38.89,24.9-58.81,29.88-66.87,33S140.9,328.72,136.87,334.5Z" style="fill:#fff;opacity:0.5"></path></g><path d="M136.87,334.5s-2.37,2.22,4.5,9.33,19.45,25.38,34.62,20.63,14.47-18.25,29.64-22.52,22.29,2.37,20.16,8.77-13,13.52-7.83,19.92,13,3.56,25.85-4,28-18.73,32.49-14.23-.26,12.56-1.2,16.95,9.26,1.31,12.1-2,9-15.65,13.76-15.65,6.75,10.31,12.5,12c0,0,5.52-2.55,6.23-4.44a8.49,8.49,0,0,1,1.66-2.85s4.27,5.46,7.35,6.88,3.32,0,3.32,0,5.22-10.91,8.3-19.68-8.06-16.6-15.18-18.73-24.9-10-34.85-24.43-20.16-34.62-28-34.62-16.37,8.3-38.89,24.9-58.81,29.88-66.87,33S140.9,328.72,136.87,334.5Z" style="fill:none;stroke:#263238;stroke-linecap:round;stroke-linejoin:round"></path><path d="M154.78,278.86s-3.17,5.34-2.18,5.93,3-3.36,3-3.36-.59,3.56.2,3.16,2.9-4.47,3.56-6.12,3.95-3.37,1.58-3.37S155.57,276.88,154.78,278.86Z" style="fill:#fff;stroke:#263238;stroke-linecap:round;stroke-linejoin:round"></path><path d="M346.06,269.15s2,5.42,1,5.42-2.8-3.12-2.8-3.12-.65,2.3-1.31,1-5.09-4.77-6.08-6.08,2.14-2,3.62-1.65A11.82,11.82,0,0,1,346.06,269.15Z" style="fill:#fff;stroke:#263238;stroke-linecap:round;stroke-linejoin:round"></path><path d="M340.94,261.63c-2.29-1.06-9-.57-12.88-2.34s-12-12.23-14.74-15.86S299,229.27,297.71,227.66s-11.52-16.21-12.29-19.39c-.62-2.55-2.44-13.86-5.68-20.15,0,0-4.32-7.48-7.57-10.08s-12.82-3.34-19-2.75-25,6-25,6-11.69,3.47-16.24,7.58-5.42,21.23-5.85,24.48-9.1,18.84-10.18,20.57-11.48,13.43-13.86,17.33-9.31,15.16-13,17.33-10.39,2.38-12.56,3.68-7.36,10.61-7.36,11.91,1.73.43,2.81-1.08,2.82-4.55,4.12-5l3.9-1.3a47.87,47.87,0,0,1-3.47,4.33c-1.3,1.3.22,2.81,4.77-1.52,0,0,1.95-2.81,3.9-3s5.19-3.68,5.19-3.68,11.48-9.32,19.5-16.68,16-19.93,20.57-27.51,10.33-22.39,10.33-22.39,3.42,8,6.66,11.95,9.65,6.55,10.52,9.79-7.58,11.92-11.48,19.06-4.12,15.17-3.25,20.8,8.66,16.67,12.35,21.22,7.36,9.53,7.36,9.53a14.44,14.44,0,0,1-3.68,2.6c-1.95.87-11.05,8.45-14.3,16s-10.18,24.26-10.39,25.12-5,8.45-5,14.95,2.27,6.21,3.46,6.93c3.11,1.86,5.42-11.92,7.37-19.5s9.31-19.49,17.11-24.25a113.6,113.6,0,0,1,16.24-8s-1.73,12.35-2.38,21,1.51,18-1.3,27.51-4.55,12.13-6.07,15.81-4.55,12.34-4.55,16.89,3.47,4.55,6.5.87,3-18.19,5-21.44,14.3-18.41,16.68-31.62-1.08-21,0-28.38,3-12.56,7.58-23.61S280.4,261.43,278,251s-10.62-21.87-10.4-27.5,3-7.41,2.17-16.25c-.34-3.61-3.9-10.39-2.82-10.83a3.16,3.16,0,0,1,3.68,2.17c2.3,6,3.74,11.57,6.91,17.18a73.53,73.53,0,0,0,5.17,8.21c5.32,7.06,14.61,18.71,23.36,25.19s21.13,14.54,21.13,14.54,3.6,3.1,5.56,3.11,4.2,2.61,4.2,2.61c5,3.83,6.32,2.16,4.9,1a47.11,47.11,0,0,1-3.91-3.94l4,.88c1.33.3,3.38,3.13,4.61,4.52s3,2.08,2.92.78S343.23,262.7,340.94,261.63Z" style="fill:#fff;stroke:#263238;stroke-linecap:round;stroke-linejoin:round"></path><path d="M241.12,397s.89-.17.89-1.78v-2.32" style="fill:none;stroke:#263238;stroke-linecap:round;stroke-linejoin:round"></path><path d="M243.43,396.31a5,5,0,0,0,.36-3" style="fill:none;stroke:#263238;stroke-linecap:round;stroke-linejoin:round"></path><path d="M245.4,395.06a10.65,10.65,0,0,0,.32-2.29" style="fill:none;stroke:#263238;stroke-linecap:round;stroke-linejoin:round"></path><path d="M212.94,363.5s.89-.36,1.07-2.5" style="fill:none;stroke:#263238;stroke-linecap:round;stroke-linejoin:round"></path><path d="M211.15,363.14a8.5,8.5,0,0,0,.9-2.32" style="fill:none;stroke:#263238;stroke-linecap:round;stroke-linejoin:round"></path><line x1="210.26" y1="360.64" x2="211.15" y2="359.22" style="fill:none;stroke:#263238;stroke-linecap:round;stroke-linejoin:round"></line><line x1="209.73" y1="358.86" x2="210.26" y2="357.43" style="fill:none;stroke:#263238;stroke-linecap:round;stroke-linejoin:round"></line><line x1="246.86" y1="392.92" x2="246.86" y2="391.48" style="fill:none;stroke:#263238;stroke-linecap:round;stroke-linejoin:round"></line><path d="M233.78,197.77a15.53,15.53,0,0,0,3.5.44" style="fill:none;stroke:#263238;stroke-linecap:round;stroke-linejoin:round"></path><path d="M227.74,195.4a24.28,24.28,0,0,0,4.75,2" style="fill:none;stroke:#263238;stroke-linecap:round;stroke-linejoin:round"></path><path d="M254.67,185.3a17.71,17.71,0,0,1-5.33,8.42" style="fill:none;stroke:#263238;stroke-linecap:round;stroke-linejoin:round"></path><path d="M188.37,243.18s6.25,2.5,9.8,7.09,9.59,14.39,9.59,14.39,4.58-9.8,4.79-17.52,5.21-29.39,5.63-32.1a20,20,0,0,1,2.5-6s3.13,7.3,6.47,10.21,9.8,6.47,9.17,9.8-6.46,10.85-10,16.68-5.21,11.89-4.79,20,4.17,12.93,2.71,16.47-27.94,17.1-40.66,22.93S145,326,141,329.5s-4.17,5-4.17,5,4-4.38,8.76-2.71,13.76,19.18,16.68,21.89,9.59,1.88,14.59-6.67,8.55-16.68,27.94-28.56S237.36,296.56,248.2,287s11.68-13.56,11.68-13.56a168.88,168.88,0,0,0,4.59,24.81c3.33,12.1,16.26,38.37,16.68,47.12s-2.51,19-6,24-9,9.59-7.92,13.34,9.17,3.76,16.26-3.12,11.05-13.14,14.8-18.56,9-13.14,12.93-11.47-1.88,10.84,2.29,14.18,8.76-3.54,13.55-12.93,6.26-15.22,7.3-13.34,1,10.63-1,16.89-1.46,11.05.21,7.92,8.55-18.35,11-29.6,1-17.52-1.46-18.14-21.27-10.22-21.27-10.22,6.67-14.18,4.17-20.43-14.59,1.67-26.27-8.34-20-24.19-22.1-28.77-7.92-17.93-9.17-21.06,0-3.55.83-8.76,0-8.21.53-9.63-.53-6.63-.53-6.63,4.17,10.63,6.67,18.76S281.35,244.85,283,249s6.26,13.13,6.26,13.13,9.59-8.75,13.55-13.76a37.49,37.49,0,0,0,5.63-9.8s-6-6.67-8.76-9.79S287.3,211,286.36,209.61s-2.09-12.09-3.75-16.05-6.47-11.26-6.47-11.26a37.13,37.13,0,0,1-12.3,12.09c-8.13,4.8-16,11.89-28.15,11.68-8.34-.14-15.09-2.37-18.53-4.33a62.45,62.45,0,0,1-8.86-6.4S205.67,205,205.67,208s.63,4.37-1,7.5-7.09,14.81-8.76,16.68S188.37,243.18,188.37,243.18Z" style="fill:#FF725E;stroke:#263238;stroke-linecap:round;stroke-linejoin:round"></path><path d="M255.82,227.68s9.53,23.82,5.95,42.88" style="fill:none;stroke:#263238;stroke-linecap:round;stroke-linejoin:round"></path><path d="M207.58,198.13s3.25-.61,4.48,2,2.44,4.28,5.08,3.46,4.28,3.87,6.31,3.87,3.46-2.65,6.72-1.22,4.88,4.07,7.73,3.25,3.66-5.08,7.53-4.07,6.51,1.22,8.14-.81-.41-4.88,4.27-4.88,5.5-.41,6.31-2.65,1-4.48,4.68-4.48,5.09-.4,5.09-2.85.61-4.68,2.24-4.68h1.62" style="fill:none;stroke:#263238;stroke-linecap:round;stroke-linejoin:round"></path><path d="M216.53,294.63l-4,2.14" style="fill:none;stroke:#263238;stroke-linecap:round;stroke-linejoin:round"></path><path d="M253.43,229.27s4.37,19.45-3.17,35.73c-5.86,12.65-19.14,21.46-29.62,27.37" style="fill:none;stroke:#263238;stroke-linecap:round;stroke-linejoin:round"></path><path d="M240.62,236.57a94.47,94.47,0,0,1-6.24,18.9" style="fill:none;stroke:#263238;stroke-linecap:round;stroke-linejoin:round"></path><path d="M241.92,228.87s-.14,1.46-.57,3.94" style="fill:none;stroke:#263238;stroke-linecap:round;stroke-linejoin:round"></path><path d="M224.23,282.17s15.7-11.21,19.67-25.9a67.91,67.91,0,0,0,1.59-27.4" style="fill:none;stroke:#263238;stroke-linecap:round;stroke-linejoin:round"></path><path d="M274,266.1c.55,1.39,1.11,2.75,1.68,4.06" style="fill:none;stroke:#263238;stroke-linecap:round;stroke-linejoin:round"></path><path d="M261.77,227.68s4.67,18.38,10.76,34.64" style="fill:none;stroke:#263238;stroke-linecap:round;stroke-linejoin:round"></path><path d="M293.83,317.46,292,313.84" style="fill:none;stroke:#263238;stroke-linecap:round;stroke-linejoin:round"></path><path d="M311.17,349.51s-6.34-11.05-16.11-29.7" style="fill:none;stroke:#263238;stroke-linecap:round;stroke-linejoin:round"></path><path d="M334.31,337.42s-26.87-18-43.15-45.42" style="fill:none;stroke:#263238;stroke-linecap:round;stroke-linejoin:round"></path><path d="M321.8,304.27s-14.76-9.09-34.61-29.34" style="fill:none;stroke:#263238;stroke-linecap:round;stroke-linejoin:round"></path><path d="M291.78,242.61c-3-12.19-6.36-34.34-6.36-34.34s.57,15,1,25.36" style="fill:none;stroke:#263238;stroke-linecap:round;stroke-linejoin:round"></path><path d="M293.14,247.53c-.23-.69-.47-1.49-.71-2.38" style="fill:none;stroke:#263238;stroke-linecap:round;stroke-linejoin:round"></path><path d="M210.15,243.16c0-11.51-4-29.81-4-29.81s2.06,22.67.87,30.21" style="fill:none;stroke:#263238;stroke-linecap:round;stroke-linejoin:round"></path><path d="M187.14,318c-13.28,7.35-25.61,15.65-25.61,15.65S171,337,173.62,341c2.07,3.2.86,8.17.27,10.1a22.61,22.61,0,0,0,3-4.08c5-8.55,8.55-16.68,27.94-28.56S237.36,296.56,248.2,287s11.68-13.56,11.68-13.56c-.16.2-.35.39-.54.61C242.22,293.92,200.12,310.8,187.14,318Z" style="fill:#FF725E"></path><g style="clip-path:url(#freepik--clip-path-2--inject-26)"><path d="M187.14,318c-13.28,7.35-25.61,15.65-25.61,15.65S171,337,173.62,341c2.07,3.2.86,8.17.27,10.1a22.61,22.61,0,0,0,3-4.08c5-8.55,8.55-16.68,27.94-28.56S237.36,296.56,248.2,287s11.68-13.56,11.68-13.56c-.16.2-.35.39-.54.61C242.22,293.92,200.12,310.8,187.14,318Z" style="fill:#fff;opacity:0.5"></path></g><path d="M187.14,318c-13.28,7.35-25.61,15.65-25.61,15.65S171,337,173.62,341c2.07,3.2.86,8.17.27,10.1a22.61,22.61,0,0,0,3-4.08c5-8.55,8.55-16.68,27.94-28.56S237.36,296.56,248.2,287s11.68-13.56,11.68-13.56c-.16.2-.35.39-.54.61C242.22,293.92,200.12,310.8,187.14,318Z" style="fill:none;stroke:#263238;stroke-linecap:round;stroke-linejoin:round"></path><path d="M259.88,273.41l.11,1C261.8,271.56,262.14,270.63,259.88,273.41Z" style="fill:#fff;stroke:#263238;stroke-linecap:round;stroke-linejoin:round"></path><path d="M253.76,312.54s7.35-3.25,7.67-7.25-2.4-20.47-5.12-25.91" style="fill:#fff;stroke:#263238;stroke-linecap:round;stroke-linejoin:round"></path><path d="M237.29,181.42c-3.3,1.35-6.61,2.73-9.91,4.18-4.41,1.94-9.79,3.31-14.6,2.6-10.1-1.49-11.22-8.6-8.23-10.85s7.11-5.23,3-5.23-16.07-.78-19.44-14.25,13-22.64,21.62-26,12-4.64,7.55-7.63-7.48-10.1.37-18.33,17.21,1.5,17.21,1.5,6.36-11.22,19.82-10.1S270,108.53,273.37,107s-.37-1.49-3.36-6,3-6,9.35-3c4.17,2,5.62,7.71,6,11.87.46,5.59-.73,10.38-6.73,11.89-2.26.57-4.61.7-6.89,1.22-3.17.73-6.15,2.51-7.3,5.69-3,8.23,1.12,12.34,9,15a11.4,11.4,0,0,1,7.48,10.23c.21,5.29-3.63,9-7.94,11.46C261.4,171.89,249.35,176.48,237.29,181.42Z" style="fill:#263238;stroke:#263238;stroke-miterlimit:10;stroke-width:0.5px"></path><path d="M234.7,111.74a6,6,0,0,1,1.34,1" style="fill:none;stroke:#fff;stroke-linecap:round;stroke-linejoin:round;stroke-width:0.5px"></path><path d="M201.67,155.38c-3.28-.67-6-2.18-6.67-6-1.57-8.77,7.52-13.16,23.81-14.72s9.4-7.84,5.33-15c-3.2-5.65,3-9.57,8.15-8.74" style="fill:none;stroke:#fff;stroke-linecap:round;stroke-linejoin:round;stroke-width:0.5px"></path><path d="M220.76,168s-1.64-8.85-6.65-11c-2.19-1-5.82-.84-9.34-1.13" style="fill:none;stroke:#fff;stroke-linecap:round;stroke-linejoin:round;stroke-width:0.5px"></path><path d="M235.1,161.63s-1.88-8.14-8.46-12.84-1.56-14.1,14.42-18.8,7.2-13.16,7.83-21.94,12.85-3.44,18.49,1.26,14.1,4.7,14.72-1.26-5.64-8.14-5.64-5.32,3.14,3.44,3.14,3.44" style="fill:none;stroke:#fff;stroke-linecap:round;stroke-linejoin:round;stroke-width:0.5px"></path><path d="M262.6,150c1.86,1.67,3.93,3.21,7,3.21,7.52,0,10.65,6,6.58,8.78" style="fill:none;stroke:#fff;stroke-linecap:round;stroke-linejoin:round;stroke-width:0.5px"></path><path d="M245.76,165.39s.31-16.6,7.52-19.11c3.6-1.25,5.79.47,8,2.51" style="fill:none;stroke:#fff;stroke-linecap:round;stroke-linejoin:round;stroke-width:0.5px"></path><path d="M257.35,133.12c5.64-4.7,0-11.59,5.95-15.35s8.78,3.13,16.3,1.88" style="fill:none;stroke:#fff;stroke-linecap:round;stroke-linejoin:round;stroke-width:0.5px"></path><path d="M241.41,166.53s-8.81-14-4.43-24.64c3.76-9.13,11.9-5.6,17.7-7.36" style="fill:none;stroke:#fff;stroke-linecap:round;stroke-linejoin:round;stroke-width:0.5px"></path><path d="M191.65,164a23.48,23.48,0,0,1-1.67-1.74" style="fill:none;stroke:#fff;stroke-linecap:round;stroke-linejoin:round;stroke-width:0.5px"></path><path d="M220.92,175.11S215.36,167,210,166.33c-4.36-.51-9.14,3.81-15.55-.11" style="fill:none;stroke:#fff;stroke-linecap:round;stroke-linejoin:round;stroke-width:0.5px"></path><path d="M250.21,169.69s1.49-3.74,3.36-2.25,1.12,6-.37,7.85-2.43.74-2.43.74Z" style="fill:#fff;stroke:#263238;stroke-linecap:round;stroke-linejoin:round"></path><path d="M222.52,176.43s-3.05-2.62-4-.43,1.76,5.81,3.94,6.78,2.5-.46,2.5-.46Z" style="fill:#fff;stroke:#263238;stroke-linecap:round;stroke-linejoin:round"></path><path d="M221.64,175.1s3.55,11.2,8.22,15.12,10.64,8.22,13.07,6.91,7.84-10.64,7.84-16.24-.93-15.87-.93-15.87-3.36-1.68-11.39-.94S223.32,169.31,221.64,175.1Z" style="fill:#fff;stroke:#263238;stroke-linecap:round;stroke-linejoin:round"></path><path d="M228.18,184.06s3.73,2.06,5.79-1.49" style="fill:none;stroke:#263238;stroke-linecap:round;stroke-linejoin:round"></path><path d="M239.75,181.26s3.93,1.87,5.61-1.49" style="fill:none;stroke:#263238;stroke-linecap:round;stroke-linejoin:round"></path><path d="M238.63,177s1.68-2.62,5.42-.94" style="fill:none;stroke:#263238;stroke-linecap:round;stroke-linejoin:round"></path><path d="M232.47,178.09s-4.85-1.5-5.41,2.24" style="fill:none;stroke:#263238;stroke-linecap:round;stroke-linejoin:round"></path><path d="M236.58,183.5s1.12,4.86,1.31,5.42,1.86.74,2.05-1.12" style="fill:none;stroke:#263238;stroke-linecap:round;stroke-linejoin:round"></path><path d="M238.07,191.72s3.18.56,3.74-1.12" style="fill:none;stroke:#263238;stroke-linecap:round;stroke-linejoin:round"></path><path d="M222.34,171s-.16-2.53-1.58-3-2.85.64-2.22,1.9a6.6,6.6,0,0,0,2.53,2.22s-3.16-.32-3.16,1.9,1.74,2.21,3,1.11a4.07,4.07,0,0,0,1.42-2.22s.63,2.85,2.85,2.37,2.22-2.69,1.27-2.84a16.22,16.22,0,0,0-2.22-.16s1.58-1.27,1.11-2.38-1.11-1.74-1.58-1.26A14.75,14.75,0,0,0,222.34,171Z" style="fill:#FF725E;stroke:#263238;stroke-miterlimit:10"></path><path d="M228.52,167.29s-2.48-.51-3.31.74-.14,2.91,1.25,2.63a6.54,6.54,0,0,0,2.8-1.86s-1.13,3,1,3.55,2.59-1.1,1.85-2.61a4,4,0,0,0-1.76-2s2.91.14,3-2.13-2-2.84-2.42-2a16.15,16.15,0,0,0-.73,2.09s-.81-1.86-2-1.69-2,.62-1.64,1.2A15.9,15.9,0,0,0,228.52,167.29Z" style="fill:#FF725E;stroke:#263238;stroke-miterlimit:10"></path><path d="M248.87,166s-2.48-.51-3.31.74-.13,2.92,1.25,2.64a6.62,6.62,0,0,0,2.8-1.87s-1.13,3,1,3.55,2.59-1.1,1.85-2.61a4.05,4.05,0,0,0-1.76-2s2.91.14,3-2.12-2-2.85-2.42-2a16.05,16.05,0,0,0-.73,2.1s-.81-1.86-2-1.69-2,.61-1.63,1.19A14.66,14.66,0,0,0,248.87,166Z" style="fill:#FF725E;stroke:#263238;stroke-miterlimit:10"></path><path d="M236.07,166s.42,2.5,1.89,2.82,2.76-.93,2-2.12a6.52,6.52,0,0,0-2.75-1.93s3.18,0,2.94-2.23-2-2-3.1-.78a4.05,4.05,0,0,0-1.18,2.35s-.94-2.76-3.09-2.06-1.92,2.91-1,3A15.51,15.51,0,0,0,234,165s-1.44,1.43-.85,2.48,1.29,1.62,1.71,1.09A15.42,15.42,0,0,0,236.07,166Z" style="fill:#FF725E;stroke:#263238;stroke-miterlimit:10"></path><path d="M244.28,165.11s.43,2.5,1.89,2.82,2.77-.93,2-2.12a6.66,6.66,0,0,0-2.76-1.94s3.18,0,3-2.22-2-2-3.11-.78a4,4,0,0,0-1.18,2.35s-.93-2.77-3.08-2.06-1.92,2.91-1,3a17.44,17.44,0,0,0,2.22-.08s-1.44,1.43-.85,2.48,1.29,1.61,1.71,1.09A15.17,15.17,0,0,0,244.28,165.11Z" style="fill:#FF725E;stroke:#263238;stroke-miterlimit:10"></path><polygon points="248.68 198.72 248.81 204.97 254.78 206.78 248.88 208.82 249.01 215.06 245.24 210.09 239.34 212.13 242.91 207.01 239.14 202.04 245.12 203.85 248.68 198.72" style="fill:#fff;stroke:#263238;stroke-linecap:round;stroke-linejoin:round"></polygon><polygon points="253.43 202.66 249.57 207.56 253.03 212.75 247.17 210.59 243.31 215.48 243.56 209.25 237.7 207.08 243.71 205.39 243.96 199.16 247.43 204.35 253.43 202.66" style="fill:#fff;stroke:#263238;stroke-linecap:round;stroke-linejoin:round"></polygon></g><g id="freepik--Sparkles--inject-26"><path d="M160.55,205.45l6.84-1.08-6.84-1.07a2.86,2.86,0,0,1-2.39-2.39l-1.08-6.85L156,200.91a2.88,2.88,0,0,1-2.39,2.39l-6.85,1.07,6.85,1.08a2.88,2.88,0,0,1,2.39,2.39l1.07,6.84,1.08-6.84A2.86,2.86,0,0,1,160.55,205.45Z" style="fill:#FF725E"></path><path d="M160.55,205.45l6.84-1.08-6.84-1.07a2.86,2.86,0,0,1-2.39-2.39l-1.08-6.85L156,200.91a2.88,2.88,0,0,1-2.39,2.39l-6.85,1.07,6.85,1.08a2.88,2.88,0,0,1,2.39,2.39l1.07,6.84,1.08-6.84A2.86,2.86,0,0,1,160.55,205.45Z" style="fill:#fff;opacity:0.4"></path><path d="M132.81,280.1l6.85-1.08L132.81,278a2.88,2.88,0,0,1-2.39-2.39l-1.07-6.85-1.08,6.85a2.88,2.88,0,0,1-2.39,2.39L119,279l6.84,1.08a2.86,2.86,0,0,1,2.39,2.39l1.08,6.84,1.07-6.84A2.86,2.86,0,0,1,132.81,280.1Z" style="fill:#FF725E"></path><path d="M132.81,280.1l6.85-1.08L132.81,278a2.88,2.88,0,0,1-2.39-2.39l-1.07-6.85-1.08,6.85a2.88,2.88,0,0,1-2.39,2.39L119,279l6.84,1.08a2.86,2.86,0,0,1,2.39,2.39l1.08,6.84,1.07-6.84A2.86,2.86,0,0,1,132.81,280.1Z" style="fill:#fff;opacity:0.4"></path><path d="M364.31,264.58l6.85-1.08-6.85-1.07a2.87,2.87,0,0,1-2.38-2.39l-1.08-6.85L359.77,260a2.86,2.86,0,0,1-2.39,2.39l-6.84,1.07,6.84,1.08a2.85,2.85,0,0,1,2.39,2.39l1.08,6.84,1.08-6.84A2.85,2.85,0,0,1,364.31,264.58Z" style="fill:#FF725E"></path><path d="M364.31,264.58l6.85-1.08-6.85-1.07a2.87,2.87,0,0,1-2.38-2.39l-1.08-6.85L359.77,260a2.86,2.86,0,0,1-2.39,2.39l-6.84,1.07,6.84,1.08a2.85,2.85,0,0,1,2.39,2.39l1.08,6.84,1.08-6.84A2.85,2.85,0,0,1,364.31,264.58Z" style="fill:#fff;opacity:0.4"></path><path d="M283,291.94l6.84-1.08L283,289.79a2.88,2.88,0,0,1-2.39-2.39l-1.08-6.85-1.07,6.85a2.89,2.89,0,0,1-2.39,2.39l-6.85,1.07,6.85,1.08a2.88,2.88,0,0,1,2.39,2.39l1.07,6.84,1.08-6.84A2.86,2.86,0,0,1,283,291.94Z" style="fill:#fff"></path><path d="M166.5,197.31l3.42-.54-3.42-.54a1.44,1.44,0,0,1-1.2-1.19l-.53-3.43-.54,3.43a1.44,1.44,0,0,1-1.2,1.19l-3.42.54,3.42.54a1.43,1.43,0,0,1,1.2,1.19l.54,3.42.53-3.42A1.43,1.43,0,0,1,166.5,197.31Z" style="fill:#FF725E"></path><path d="M166.5,197.31l3.42-.54-3.42-.54a1.44,1.44,0,0,1-1.2-1.19l-.53-3.43-.54,3.43a1.44,1.44,0,0,1-1.2,1.19l-3.42.54,3.42.54a1.43,1.43,0,0,1,1.2,1.19l.54,3.42.53-3.42A1.43,1.43,0,0,1,166.5,197.31Z" style="fill:#fff;opacity:0.4"></path><path d="M352.27,213.44l3.42-.54-3.42-.54a1.43,1.43,0,0,1-1.19-1.19l-.54-3.43-.54,3.43a1.44,1.44,0,0,1-1.19,1.19l-3.43.54,3.43.54a1.42,1.42,0,0,1,1.19,1.19l.54,3.42.54-3.42A1.41,1.41,0,0,1,352.27,213.44Z" style="fill:#FF725E"></path><path d="M352.27,213.44l3.42-.54-3.42-.54a1.43,1.43,0,0,1-1.19-1.19l-.54-3.43-.54,3.43a1.44,1.44,0,0,1-1.19,1.19l-3.43.54,3.43.54a1.42,1.42,0,0,1,1.19,1.19l.54,3.42.54-3.42A1.41,1.41,0,0,1,352.27,213.44Z" style="fill:#fff;opacity:0.4"></path><path d="M313,130l6.19-1-6.19-1a2.59,2.59,0,0,1-2.16-2.16l-1-6.18-1,6.18a2.58,2.58,0,0,1-2.16,2.16l-6.18,1,6.18,1a2.58,2.58,0,0,1,2.16,2.16l1,6.18,1-6.18A2.59,2.59,0,0,1,313,130Z" style="fill:#FF725E"></path><path d="M313,130l6.19-1-6.19-1a2.59,2.59,0,0,1-2.16-2.16l-1-6.18-1,6.18a2.58,2.58,0,0,1-2.16,2.16l-6.18,1,6.18,1a2.58,2.58,0,0,1,2.16,2.16l1,6.18,1-6.18A2.59,2.59,0,0,1,313,130Z" style="fill:#fff;opacity:0.4"></path><path d="M295.56,191.78l3.43-.54-3.43-.53a1.44,1.44,0,0,1-1.19-1.2l-.54-3.42-.54,3.42a1.43,1.43,0,0,1-1.19,1.2l-3.42.53,3.42.54a1.43,1.43,0,0,1,1.19,1.2l.54,3.42.54-3.42A1.44,1.44,0,0,1,295.56,191.78Z" style="fill:#FF725E"></path><path d="M295.56,191.78l3.43-.54-3.43-.53a1.44,1.44,0,0,1-1.19-1.2l-.54-3.42-.54,3.42a1.43,1.43,0,0,1-1.19,1.2l-3.42.53,3.42.54a1.43,1.43,0,0,1,1.19,1.2l.54,3.42.54-3.42A1.44,1.44,0,0,1,295.56,191.78Z" style="fill:#fff;opacity:0.4"></path><path d="M372.89,274l3.42-.54-3.42-.53a1.43,1.43,0,0,1-1.19-1.2l-.54-3.42-.54,3.42a1.44,1.44,0,0,1-1.19,1.2l-3.43.53,3.43.54a1.44,1.44,0,0,1,1.19,1.2l.54,3.42.54-3.42A1.43,1.43,0,0,1,372.89,274Z" style="fill:#FF725E"></path><path d="M372.89,274l3.42-.54-3.42-.53a1.43,1.43,0,0,1-1.19-1.2l-.54-3.42-.54,3.42a1.44,1.44,0,0,1-1.19,1.2l-3.43.53,3.43.54a1.44,1.44,0,0,1,1.19,1.2l.54,3.42.54-3.42A1.43,1.43,0,0,1,372.89,274Z" style="fill:#fff;opacity:0.4"></path><path d="M216.27,277.81l3.42-.54-3.42-.54a1.42,1.42,0,0,1-1.2-1.19l-.54-3.42-.53,3.42a1.42,1.42,0,0,1-1.2,1.19l-3.42.54,3.42.54A1.44,1.44,0,0,1,214,279l.53,3.43.54-3.43A1.44,1.44,0,0,1,216.27,277.81Z" style="fill:#FF725E"></path><path d="M216.27,277.81l3.42-.54-3.42-.54a1.42,1.42,0,0,1-1.2-1.19l-.54-3.42-.53,3.42a1.42,1.42,0,0,1-1.2,1.19l-3.42.54,3.42.54A1.44,1.44,0,0,1,214,279l.53,3.43.54-3.43A1.44,1.44,0,0,1,216.27,277.81Z" style="fill:#fff;opacity:0.4"></path><path d="M181.57,315.82l3.42-.54-3.42-.54a1.43,1.43,0,0,1-1.2-1.19l-.54-3.42-.53,3.42a1.43,1.43,0,0,1-1.2,1.19l-3.42.54,3.42.54a1.44,1.44,0,0,1,1.2,1.19l.53,3.43.54-3.43A1.44,1.44,0,0,1,181.57,315.82Z" style="fill:#fff"></path></g></svg>